<?xml version="1.0" standalone="no"?>
<!DOCTYPE svg PUBLIC "-//W3C//DTD SVG 20010904//EN"
        "http://www.w3.org/TR/2001/REC-SVG-20010904/DTD/svg10.dtd">
<svg version="1.0" xmlns="http://www.w3.org/2000/svg"
     width="512px" height="512px" viewBox="0 0 4168.000000 4168.000000"
     preserveAspectRatio="xMidYMid meet">

    <g transform="translate(0.000000,4168.000000) scale(0.100000,-0.100000)"
       fill="#aef44d" stroke="none">
        <path d="M2353 36846 c3 -8 164 -287 356 -621 193 -334 351 -608 351 -610 0
-1 -27 -5 -61 -8 -33 -3 -63 -7 -65 -10 -2 -2 155 -265 350 -583 195 -318 353
-580 351 -582 -1 -2 -30 -6 -63 -10 l-60 -7 350 -540 c193 -297 353 -546 355
-552 4 -9 -7 -13 -33 -14 -95 -2 -113 33 268 -522 191 -279 348 -512 348 -517
0 -4 -23 -11 -50 -15 -28 -4 -50 -11 -48 -16 2 -5 157 -222 346 -483 188 -261
342 -476 342 -479 0 -2 -22 -7 -50 -11 -27 -4 -50 -9 -50 -12 0 -3 153 -206
340 -452 187 -246 340 -450 340 -453 0 -4 -20 -10 -45 -13 -25 -4 -45 -10 -45
-14 0 -4 151 -195 335 -425 184 -229 335 -418 335 -420 0 -3 -21 -10 -46 -16
l-47 -12 20 -22 c165 -185 505 -606 549 -679 30 -51 54 -95 54 -98 0 -4 -9
-11 -20 -16 -18 -8 -12 -17 63 -102 79 -90 353 -563 6897 -11897 3748 -6492
6817 -11802 6820 -11800 4 2 105 175 225 384 121 210 222 381 225 381 3 0 23
-29 45 -64 l40 -65 190 366 c105 201 195 372 201 380 8 12 18 3 52 -48 l41
-63 29 64 c59 131 314 675 317 678 1 2 20 -22 41 -52 22 -31 41 -56 44 -56 3
0 65 145 138 323 73 177 141 339 150 361 l17 38 39 -56 c21 -31 40 -55 42 -54
1 2 60 158 129 348 69 189 127 346 129 348 3 2 22 -19 44 -47 l40 -50 50 157
c28 86 77 239 108 340 32 100 61 182 65 182 3 0 22 -20 42 -46 29 -37 36 -42
41 -27 3 10 37 135 76 278 39 143 78 285 87 315 l16 55 38 -44 c26 -29 40 -39
44 -30 2 8 36 151 75 318 38 167 72 306 74 308 2 2 18 -15 36 -37 40 -50 42
-48 65 80 50 279 63 329 100 391 27 43 40 58 48 50 19 -19 25 -12 32 42 5 35
23 81 57 142 28 50 3467 6008 7643 13240 4175 7233 7597 13160 7604 13173 l12
22 -18492 0 c-15955 0 -18490 -2 -18486 -14z m33685 -81 c-3 -3 -7349 -261
-16324 -574 -8975 -314 -16369 -572 -16430 -575 l-112 -6 -326 565 c-180 311
-329 572 -332 580 -5 13 1953 15 16762 15 9222 0 16765 -2 16762 -5z m3103
-50 c-91 -161 -14926 -25855 -14943 -25880 l-20 -30 6 37 c3 24 2538 4908
6731 12970 3700 7113 6731 12939 6737 12946 8 9 174 12 765 12 l755 0 -31 -55z
m-1623 -4 c-1 -4 -2971 -5714 -6598 -12687 -3967 -7626 -6596 -12671 -6598
-12658 -2 16 11763 25283 11782 25301 3 3 1180 48 1349 52 38 0 67 -3 65 -8z
m-1548 -98 c0 -19 -11535 -24753 -11538 -24740 -2 12 10207 24640 10219 24651
4 4 1207 92 1282 95 20 0 37 -2 37 -6z m-1560 -10 c-25 -2 -6910 -489 -15300
-1082 -11458 -811 -15258 -1076 -15266 -1067 -21 21 -616 1058 -610 1063 7 7
30953 1091 31111 1090 61 0 90 -2 65 -4z m110 -140 c0 -11 -9993 -24097
-10001 -24107 -5 -5 -5 4 0 20 17 58 8764 23949 8772 23958 7 8 1104 133 1192
135 20 1 37 -2 37 -6z m-1525 -60 c-60 -8 -28441 -3054 -28477 -3056 l-38 -2
-289 500 c-159 275 -287 502 -284 505 5 6 28997 2058 29068 2057 28 0 37 -2
20 -4z m-4118 -11845 c-2360 -6449 -4293 -11725 -4295 -11723 -4 4 7430 23269
7438 23278 6 7 1140 177 1147 172 2 -1 -1929 -5278 -4290 -11727z m2796 11605
c-7 -2 -19 -2 -25 0 -7 3 -2 5 12 5 14 0 19 -2 13 -5z m-168 -24 c-85 -13
-24840 -3606 -26267 -3813 l-157 -22 -271 468 c-148 258 -270 472 -270 476 0
7 26982 2910 27050 2910 19 0 -19 -8 -85 -19z m393 -91 c-3 -7 -1631 -5103
-3619 -11325 -1987 -6221 -3615 -11310 -3617 -11309 -4 5 6166 22438 6175
22446 7 7 1003 196 1047 199 10 1 16 -4 14 -11z m-1525 -175 c-7 -2 -21 -2
-30 0 -10 3 -4 5 12 5 17 0 24 -2 18 -5z m-88 -14 c-145 -32 -24604 -4529
-24620 -4527 -21 3 -80 98 -366 593 -130 227 -164 291 -151 293 62 13 25123
3650 25147 3650 26 0 24 -1 -10 -9z m416 -121 c-10 -35 -1360 -4946 -3001
-10915 -1642 -5969 -2985 -10851 -2987 -10849 -3 2 5008 21598 5013 21605 4 4
954 219 976 220 15 1 15 -3 -1 -61z m-1524 -184 c-3 -3 -12 -4 -19 -1 -8 3 -5
6 6 6 11 1 17 -2 13 -5z m-132 -29 c-69 -17 -22286 -5003 -22786 -5114 l-36
-8 -95 151 c-184 290 -419 678 -414 683 6 7 23374 4311 23406 4311 14 0 -20
-10 -75 -23z m-25740 -332 c104 -181 195 -339 204 -353 8 -14 10 -20 4 -15
-12 11 -423 681 -423 690 0 3 6 5 13 5 7 0 98 -147 202 -327z m23878 -10154
c-1335 -5754 -2429 -10455 -2430 -10448 -2 8 885 4664 1970 10348 l1973 10335
454 121 c250 67 457 118 458 113 2 -4 -1089 -4716 -2425 -10469z m894 10165
c-3 -3 -12 -4 -19 -1 -8 3 -5 6 6 6 11 1 17 -2 13 -5z m-42 -10 c-5 -2 -4786
-1275 -10624 -2829 -8088 -2153 -10617 -2823 -10627 -2814 -7 6 -96 138 -198
293 -260 398 -306 470 -301 474 6 7 21717 4880 21740 4880 11 0 16 -1 10 -4z
m552 -6 c-2 -7 -865 -4526 -1918 -10042 -1053 -5516 -1915 -10023 -1917
-10015 -2 11 2958 19645 2983 19784 l5 30 407 127 c225 69 416 127 427 127 10
1 16 -4 13 -11z m-960 -360 c-24 -179 -2903 -19226 -2905 -19220 -5 16 2128
18987 2136 18990 41 17 751 270 761 271 10 1 12 -9 8 -41z m-622 -13 c-215
-69 -19645 -6085 -19651 -6084 -10 0 -36 37 -322 452 -101 147 -182 270 -180
272 6 7 20161 5373 20178 5373 8 0 -3 -6 -25 -13z m-258 -327 c-3 -18 -471
-4174 -1039 -9235 -568 -5061 -1034 -9200 -1036 -9199 -3 4 1343 18039 1353
18131 l6 51 347 141 c191 78 353 142 361 142 10 1 12 -8 8 -31z m-687 -72
c-36 -13 -4128 -1467 -9095 -3231 -4966 -1764 -9037 -3210 -9046 -3212 -12 -3
-55 48 -151 179 -282 382 -359 493 -346 498 54 19 18676 5788 18688 5788 8 0
-14 -10 -50 -22z m-22224 -303 c76 -124 143 -232 147 -240 4 -7 6 -13 4 -13
-6 0 -307 465 -307 473 0 27 34 -22 156 -220z m21437 -8754 c-362 -4837 -659
-8783 -661 -8769 -4 36 646 17086 655 17190 l8 84 325 147 c179 81 326 146
328 145 1 -2 -294 -3960 -655 -8797z m-44 8657 c-7 -7 -16768 -6756 -16776
-6756 -16 1 -487 620 -478 628 7 7 17232 6129 17249 6131 5 1 7 -1 5 -3z
m-375 -8600 c-256 -6703 -320 -8293 -322 -8096 -5 362 27 15135 34 15688 l6
473 297 148 c163 82 298 144 300 139 2 -6 -140 -3764 -315 -8352z m-444 8160
c-14 -7 -3487 -1581 -7719 -3496 -5972 -2704 -7697 -3481 -7710 -3473 -21 13
-460 555 -460 568 0 9 15878 6412 15904 6413 6 1 -1 -5 -15 -12z m60 -753 c1
-1733 -35 -15302 -41 -15287 -4 11 -118 3459 -254 7664 -135 4205 -249 7699
-252 7765 l-6 120 269 152 c148 83 272 152 277 152 4 1 7 -254 7 -566z
m-20107 280 c100 -155 99 -153 94 -153 -6 0 -187 266 -187 274 0 17 17 -5 93
-121z m19182 -36 c-77 -40 -3265 -1652 -7085 -3583 l-6945 -3511 -45 50 c-25
28 -129 150 -232 271 l-187 221 47 23 c91 45 14567 6600 14577 6601 6 0 -53
-32 -130 -72z m531 -7588 c134 -4133 243 -7534 242 -7559 -2 -25 -225 3283
-496 7350 -271 4067 -493 7402 -492 7410 1 14 490 323 498 315 2 -1 113 -3384
248 -7516z m-1051 7213 c-13 -11 -12965 -7279 -12986 -7287 -12 -5 -74 59
-237 242 -121 136 -218 251 -214 255 7 7 13433 6797 13442 6798 2 0 0 -4 -5
-8z m690 -7208 c262 -3910 474 -7120 473 -7134 -2 -14 -317 3105 -702 6930
-384 3825 -701 6967 -703 6981 -5 25 11 37 223 182 125 86 229 155 231 153 2
-2 217 -3202 478 -7112z m-1285 6761 c0 -2 -10 -9 -22 -15 -22 -11 -22 -10 -4
4 21 17 26 19 26 11z m-69 -43 c-14 -9 -2680 -1665 -5925 -3679 l-5901 -3663
-100 103 c-204 209 -338 358 -329 366 11 11 12267 6890 12274 6890 3 0 -6 -8
-19 -17z m1014 -6736 c372 -3696 674 -6726 673 -6733 -2 -8 -399 2946 -884
6564 -484 3618 -879 6583 -877 6588 6 15 408 316 410 307 2 -4 307 -3031 678
-6726z m-18464 6649 c7 -14 4 -12 -11 5 -11 14 -25 34 -31 45 -7 14 -4 12 11
-5 11 -14 25 -34 31 -45z m30 -42 c13 -16 12 -17 -3 -4 -10 7 -18 15 -18 17 0
8 8 3 21 -13z m18109 -6603 c463 -3468 844 -6323 846 -6345 2 -22 -462 2746
-1031 6150 -568 3405 -1034 6195 -1034 6202 -1 15 362 314 370 305 3 -4 385
-2844 849 -6312z m-1240 6270 c-14 -11 -2446 -1675 -5405 -3699 l-5380 -3679
-215 215 c-118 118 -210 217 -205 219 6 3 2532 1570 5615 3484 3083 1914 5607
3479 5610 3479 3 0 -6 -9 -20 -19z m932 -6291 c543 -3258 987 -5930 985 -5938
-2 -17 -2308 11547 -2307 11569 2 18 311 300 325 296 5 -1 454 -2668 997
-5927z m-1432 5827 c-8 -8 -2219 -1671 -4913 -3696 l-4899 -3681 -166 160
c-92 87 -184 177 -204 198 l-38 38 5113 3497 c2811 1923 5114 3497 5117 3497
2 1 -2 -5 -10 -13z m1150 -5905 c611 -3065 1109 -5575 1108 -5577 -2 -2 -572
2448 -1266 5444 l-1262 5447 148 148 c120 120 148 144 154 130 4 -10 507
-2526 1118 -5592z m-1570 5465 c0 -2 -8 -10 -17 -17 -16 -13 -17 -12 -4 4 13
16 21 21 21 13z m-40 -30 c0 -8 -8872 -7321 -8885 -7324 -15 -3 -399 348 -390
357 8 7 9269 6970 9273 6970 1 1 2 -1 2 -3z m1331 -5449 c660 -2854 1199
-5190 1197 -5192 -2 -2 -604 2272 -1337 5053 -734 2781 -1336 5062 -1338 5067
-2 6 56 75 129 154 111 120 133 140 140 125 4 -11 548 -2354 1209 -5207z
m-1731 4989 c0 -8 -8031 -7261 -8040 -7261 -14 0 -371 316 -368 326 2 6 8396
6935 8406 6938 1 1 2 -1 2 -3z m1468 -5027 c705 -2674 1281 -4863 1279 -4865
-5 -6 -2800 9443 -2796 9455 6 14 221 271 228 271 3 0 583 -2188 1289 -4861z
m-1838 4557 c0 -8 -7223 -7151 -7233 -7153 -13 -3 -349 276 -353 292 -2 7
7569 6860 7584 6864 1 1 2 -1 2 -3z m1599 -4635 c738 -2493 1341 -4535 1339
-4536 -2 -2 -654 1982 -1450 4408 l-1447 4412 101 133 c56 73 105 129 109 125
4 -4 611 -2048 1348 -4542z m-1950 4142 c-25 -27 -1488 -1613 -3253 -3526
-2185 -2369 -3212 -3475 -3219 -3469 -7 5 -85 67 -175 137 l-162 129 482 476
c266 263 1806 1787 3423 3388 1617 1601 2942 2911 2944 2912 2 0 -16 -21 -40
-47z m1705 -4157 c752 -2293 1365 -4170 1363 -4172 -5 -6 -2910 8064 -2911
8087 -1 23 166 271 175 261 3 -4 621 -1883 1373 -4176z m-210 -90 c768 -2134
1395 -3881 1393 -3882 -2 -2 -668 1691 -1480 3762 l-1478 3765 78 124 c43 68
81 121 84 117 3 -4 634 -1753 1403 -3886z m-1734 3841 c0 -2 -12 -14 -27 -28
l-28 -24 24 28 c23 25 31 32 31 24z m-72 -84 c-14 -16 -1309 -1553 -2878
-3418 -1569 -1864 -2856 -3393 -2859 -3398 -7 -7 -323 226 -329 242 -3 9 6074
6601 6085 6601 4 0 -5 -12 -19 -27z m1591 -3807 c770 -1963 1399 -3571 1398
-3573 -2 -2 -664 1552 -1471 3452 l-1468 3455 68 120 c37 66 69 119 70 117 1
-1 633 -1608 1403 -3571z m-1887 3292 c-43 -57 -1194 -1556 -2557 -3333 -1362
-1776 -2482 -3236 -2489 -3242 -9 -10 -46 12 -168 99 -154 110 -156 112 -140
133 51 65 5426 6445 5429 6445 2 0 -31 -46 -75 -102z m1697 -3377 c765 -1801
1390 -3276 1388 -3277 -2 -2 -657 1425 -1455 3171 l-1453 3174 58 110 c32 60
61 107 65 103 3 -4 632 -1480 1397 -3281z m-13217 2961 c27 -46 48 -86 45 -88
-5 -5 -42 56 -109 176 -35 63 10 0 64 -88z m11371 56 c-6 -7 -1011 -1446
-2233 -3198 -1223 -1752 -2239 -3208 -2260 -3236 l-36 -52 -145 98 c-79 53
-144 103 -144 109 0 11 4814 6291 4823 6291 2 0 0 -6 -5 -12z m1698 -3173
c753 -1644 1367 -2990 1366 -2991 -3 -4 -2872 5845 -2876 5863 -1 9 19 63 45
121 l48 105 25 -54 c13 -30 640 -1399 1392 -3044z m-6175 -8140 c3694 -6034
6721 -10979 6726 -10990 8 -17 -24 -80 -184 -358 -106 -185 -196 -335 -200
-334 -5 1 -2933 5069 -6509 11262 -3575 6193 -6525 11303 -6555 11355 -46 79
-51 90 -25 65 16 -16 3052 -4966 6747 -11000z m5939 8195 c725 -1477 1340
-2730 1367 -2785 169 -338 -121 211 -1372 2598 l-1402 2678 32 77 c18 42 36
88 41 101 5 13 11 22 13 20 2 -2 597 -1212 1321 -2689z m-1667 2648 c-8 -13
-898 -1418 -1978 -3123 -1080 -1705 -1968 -3106 -1974 -3113 -10 -10 -40 6
-149 75 -75 48 -137 92 -137 96 0 10 4241 6087 4248 6087 2 0 -2 -10 -10 -22z
m-10598 -319 c15 -28 5 -23 -15 7 -9 15 -12 23 -6 20 6 -4 16 -16 21 -27z
m12115 -2439 c1386 -2644 1332 -2540 1318 -2525 -6 6 -611 1088 -1346 2405
l-1336 2396 24 64 c38 106 45 123 49 119 3 -2 583 -1109 1291 -2459z m-12085
2390 c6 -11 8 -20 6 -20 -3 0 -10 9 -16 20 -6 11 -8 20 -6 20 3 0 10 -9 16
-20z m10396 -92 c-13 -24 -790 -1379 -1726 -3013 -936 -1633 -1705 -2974
-1710 -2979 -10 -10 -272 145 -266 159 6 17 3719 5875 3723 5875 2 0 -7 -19
-21 -42z m-3625 -10353 c3642 -5621 6635 -10241 6652 -10266 l29 -47 -179
-311 c-98 -171 -181 -311 -184 -311 -5 0 -10350 16887 -12927 21100 -35 58
-53 94 -39 80 14 -14 3005 -4624 6648 -10245z m5184 7928 c1354 -2425 1291
-2311 1281 -2302 -4 4 -591 993 -1306 2197 l-1298 2191 26 85 c14 47 28 86 31
86 4 0 573 -1015 1266 -2257z m-1719 1935 c-30 -57 -676 -1309 -1436 -2783
-760 -1474 -1411 -2735 -1446 -2802 l-64 -122 -123 71 c-67 38 -124 71 -125
73 -2 2 724 1274 1613 2827 890 1553 1620 2826 1622 2831 2 4 6 7 9 7 2 0 -20
-46 -50 -102z m1579 -2028 c654 -1103 1195 -2016 1203 -2030 9 -14 11 -20 5
-15 -6 6 -563 890 -1238 1964 l-1227 1955 23 83 c19 71 24 81 34 66 7 -10 547
-920 1200 -2023z m-4546 -7874 l6572 -9599 -92 -161 c-237 -411 -241 -418
-254 -404 -10 11 -12691 19575 -12793 19738 -19 30 -28 48 -19 40 8 -8 2972
-4335 6586 -9614z m4407 7794 c1299 -2069 1160 -1848 1147 -1835 -6 6 -531
794 -1168 1752 l-1157 1743 18 75 c10 41 21 72 25 68 4 -5 515 -816 1135
-1803z m-1504 1763 c-11 -21 -590 -1273 -1287 -2783 -698 -1510 -1269 -2747
-1271 -2749 -5 -6 -226 114 -231 125 -4 10 2794 5444 2803 5444 3 0 -4 -17
-14 -37z m1388 -1868 c1126 -1695 1099 -1655 1083 -1640 -6 6 -498 705 -1094
1555 l-1084 1545 0 50 c1 60 13 111 24 99 5 -5 487 -729 1071 -1609z m-2553
-1181 c-590 -1435 -1076 -2617 -1080 -2627 -6 -15 -19 -11 -117 38 -60 30
-110 58 -110 62 0 11 2373 5143 2376 5140 2 -2 -479 -1177 -1069 -2613z m2423
1106 c530 -756 979 -1397 998 -1425 19 -27 28 -43 20 -35 -8 8 -468 628 -1022
1378 -986 1335 -1007 1364 -1001 1400 13 82 15 86 29 71 7 -8 446 -633 976
-1389z m-3666 -7668 c3540 -4902 6436 -8916 6436 -8919 0 -3 -69 -125 -152
-269 -119 -205 -155 -261 -164 -251 -9 9 -12086 17646 -12502 18257 -47 69
-78 118 -70 110 8 -8 2912 -4026 6452 -8928z m4772 5928 c1161 -1570 2139
-2895 2175 -2945 123 -169 345 -512 337 -520 -4 -4 -4289 554 -4538 591 -244
36 -688 129 -706 147 -4 4 576 5342 603 5550 3 27 9 45 13 40 4 -4 956 -1293
2116 -2863z m-3411 364 c-492 -1358 -899 -2479 -904 -2491 -10 -22 -11 -22
-111 25 -55 25 -100 51 -100 57 0 13 2003 4885 2007 4882 1 -2 -400 -1115
-892 -2473z m118 -269 c-410 -1298 -747 -2362 -749 -2364 -2 -2 -45 14 -96 36
-59 26 -93 46 -92 55 2 18 1676 4639 1680 4635 1 -1 -333 -1064 -743 -2362z
m-988 -6090 c3447 -4532 6272 -8246 6278 -8252 6 -9 -33 -86 -130 -254 -77
-133 -143 -242 -148 -243 -5 0 -2726 3761 -6047 8359 -6732 9321 -6267 8677
-6241 8650 11 -11 2841 -3728 6288 -8260z m1109 5829 c-328 -1210 -600 -2203
-604 -2207 -9 -10 -175 56 -175 69 0 16 1369 4343 1373 4339 2 -1 -265 -992
-594 -2201z m130 -230 c-262 -1143 -478 -2081 -479 -2083 -2 -2 -39 10 -82 27
-60 23 -78 34 -77 48 1 23 1107 4094 1111 4090 2 -1 -211 -938 -473 -2082z
m-774 -5643 c3361 -4199 6114 -7639 6116 -7645 2 -6 -47 -108 -109 -226 -138
-265 -133 -257 -145 -245 -5 6 -2675 3513 -5932 7795 -3258 4282 -5959 7832
-6003 7890 -44 58 -71 96 -60 85 11 -11 2771 -3455 6133 -7654z m1267 7347
c-3 -8 -6 -5 -6 6 -1 11 2 17 5 13 3 -3 4 -12 1 -19z m-367 -1950 c-198 -1055
-360 -1919 -360 -1922 0 -10 -150 47 -150 57 -1 19 865 3798 868 3789 1 -4
-160 -870 -358 -1924z m-449 -5438 c3253 -3864 5919 -7032 5925 -7040 9 -12
-11 -62 -95 -240 -59 -124 -110 -224 -114 -223 -5 1 -2002 2492 -4439 5535
-6216 7762 -7244 9046 -7216 9018 14 -14 2687 -3186 5939 -7050z m584 5236
c-145 -984 -266 -1791 -268 -1793 -2 -2 -34 6 -72 18 -63 19 -67 22 -63 47 15
97 664 3530 666 3524 1 -4 -117 -812 -263 -1796z m135 -201 c-100 -907 -183
-1651 -185 -1653 -5 -5 -96 16 -113 27 -10 6 39 356 230 1649 134 903 244
1638 246 1634 1 -5 -79 -751 -178 -1657z m-285 -5064 c3146 -3555 5721 -6471
5723 -6480 3 -20 -170 -434 -181 -433 -5 1 -2533 2999 -5619 6664 -6137 7288
-5724 6797 -5677 6748 19 -19 2608 -2944 5754 -6499z m405 -6 c3016 -3245
5492 -5910 5503 -5922 l20 -23 -58 -162 c-32 -90 -68 -186 -79 -214 l-21 -51
-5380 6079 c-5924 6694 -5576 6301 -5513 6238 25 -25 2513 -2700 5528 -5945z
m485 -95 c2815 -2885 5138 -5266 5162 -5291 l45 -47 -62 -193 c-34 -107 -65
-197 -69 -202 -4 -4 -2104 2248 -4667 5005 -5933 6383 -5888 6334 -5692 6138
91 -91 2468 -2525 5283 -5410z m3545 5295 c0 -5 -5 -3 -10 5 -5 8 -10 20 -10
25 0 6 5 3 10 -5 5 -8 10 -19 10 -25z m190 -190 c0 -5 -5 -3 -10 5 -5 8 -10
20 -10 25 0 6 5 3 10 -5 5 -8 10 -19 10 -25z m-3585 -4870 c2717 -2650 4998
-4875 5069 -4945 l128 -127 -52 -192 c-29 -105 -56 -191 -60 -191 -4 0 -985
1002 -2181 2227 -5200 5327 -7929 8125 -7888 8087 24 -23 2267 -2209 4984
-4859z m3795 4610 c0 -5 -5 -3 -10 5 -5 8 -10 20 -10 25 0 6 5 3 10 -5 5 -8
10 -19 10 -25z m-3350 -4675 c2643 -2454 4819 -4477 4837 -4494 l31 -31 -42
-182 c-23 -101 -44 -184 -47 -186 -4 -4 -9590 9346 -9681 9443 -24 25 -11 15
27 -21 39 -37 2232 -2074 4875 -4529z m-4400 4225 c19 -19 32 -35 29 -35 -3 0
-20 16 -39 35 -19 19 -32 35 -29 35 3 0 20 -16 39 -35z m4730 -4185 c2533
-2240 4611 -4078 4618 -4085 10 -9 7 -41 -18 -171 -17 -87 -34 -167 -38 -177
-6 -14 -908 820 -4582 4234 -2516 2337 -4595 4271 -4620 4297 -41 43 -41 43
-5 11 22 -20 2112 -1869 4645 -4109z m-4235 3880 c10 -11 16 -20 13 -20 -3 0
-13 9 -23 20 -10 11 -16 20 -13 20 3 0 13 -9 23 -20z m7822 -32 c-3 -8 -6 -5
-6 6 -1 11 2 17 5 13 3 -3 4 -12 1 -19z m-3292 -3783 c2404 -2023 4378 -3685
4388 -3694 17 -16 16 -23 -3 -157 -11 -76 -24 -152 -28 -168 -8 -28 -94 47
-4397 3854 -3872 3424 -4654 4118 -4395 3899 36 -31 2032 -1711 4435 -3734z
m-4020 3515 c10 -11 16 -20 13 -20 -3 0 -13 9 -23 20 -10 11 -16 20 -13 20 3
0 13 -9 23 -20z m7492 -22 c-3 -8 -6 -5 -6 6 -1 11 2 17 5 13 3 -3 4 -12 1
-19z m-3072 -3518 c2228 -1784 4052 -3244 4054 -3246 4 -4 -29 -317 -34 -322
-4 -4 -8355 7026 -8395 7066 -33 33 -240 198 4375 -3498z m3082 3478 c-3 -8
-6 -5 -6 6 -1 11 2 17 5 13 3 -3 4 -12 1 -19z m-7036 -185 c13 -16 12 -17 -3
-4 -17 13 -22 21 -14 21 2 0 10 -8 17 -17z m4169 -3173 l3865 -2943 -2 -132
c-2 -73 -6 -142 -11 -154 -7 -20 -359 259 -3992 3169 -2192 1755 -3992 3199
-4000 3207 -19 20 -328 255 4140 -3147z m3047 3028 c-3 -8 -6 -5 -6 6 -1 11 2
17 5 13 3 -3 4 -12 1 -19z m-6736 -95 c13 -16 12 -17 -3 -4 -17 13 -22 21 -14
21 2 0 10 -8 17 -17z m3844 -2777 l3730 -2697 3 -99 c1 -54 -1 -120 -5 -145
l-8 -47 -3760 2862 c-2068 1574 -3767 2869 -3775 2878 -20 21 -341 252 3815
-2752z m3052 2572 c-3 -7 -5 -2 -5 12 0 14 2 19 5 13 2 -7 2 -19 0 -25z
m-2789 -2502 l3482 -2388 -1 -117 c0 -64 -3 -123 -7 -132 -6 -12 -789 550
-3552 2548 -1950 1409 -3556 2572 -3570 2584 -44 36 114 -72 3648 -2495z
m2799 2452 c-3 -8 -6 -5 -6 6 -1 11 2 17 5 13 3 -3 4 -12 1 -19z m-2672 -2295
c1815 -1179 3310 -2151 3323 -2161 22 -16 23 -22 20 -139 l-3 -122 -3340 2290
c-1837 1260 -3344 2295 -3350 2302 -14 15 -277 185 3350 -2170z m738 2080 c-7
-2 -21 -2 -30 0 -10 3 -4 5 12 5 17 0 24 -2 18 -5z m772 -98 c401 -53 730 -96
731 -98 9 -12 25 -50 22 -53 -4 -3 -1455 229 -1498 240 -54 13 95 -4 745 -89z
m-1305 -1884 c1702 -1045 3100 -1909 3107 -1918 6 -10 14 -67 18 -127 6 -90 5
-107 -6 -100 -56 33 -6266 4068 -6274 4077 -14 15 -215 138 3155 -1932z m403
1902 c-7 -2 -19 -2 -25 0 -7 3 -2 5 12 5 14 0 19 -2 13 -5z m868 -138 c459
-75 839 -138 846 -140 17 -6 46 -65 33 -65 -13 0 -1711 329 -1725 335 -29 11
80 -6 846 -130z m1356 68 c-3 -10 -5 -4 -5 12 0 17 2 24 5 18 2 -7 2 -21 0
-30z m-2472 -1708 c1601 -927 2913 -1690 2917 -1694 10 -9 30 -161 26 -195 -3
-26 -109 38 -2953 1785 -1622 996 -2954 1816 -2960 1822 -5 5 6 1 25 -10 19
-12 1345 -780 2945 -1708z m82 1709 c-3 -3 -12 -4 -19 -1 -8 3 -5 6 6 6 11 1
17 -2 13 -5z m46 -11 c-7 -2 -19 -2 -25 0 -7 3 -2 5 12 5 14 0 19 -2 13 -5z
m964 -183 c510 -99 937 -182 948 -185 17 -4 63 -73 53 -79 -3 -2 -1897 426
-1938 437 -74 21 140 -18 937 -173z m-1190 134 c-3 -3 -12 -4 -19 -1 -8 3 -5
6 6 6 11 1 17 -2 13 -5z m40 -10 c-3 -3 -12 -4 -19 -1 -8 3 -5 6 6 6 11 1 17
-2 13 -5z m40 -10 c-3 -3 -12 -4 -19 -1 -8 3 -5 6 6 6 11 1 17 -2 13 -5z m163
-1504 c1504 -821 2736 -1494 2738 -1495 4 -4 29 -199 26 -203 -3 -4 -5495
3177 -5509 3191 -13 12 -403 225 2745 -1493z m886 1269 c560 -126 1040 -235
1067 -240 41 -9 50 -16 68 -51 11 -22 19 -41 17 -43 -3 -3 -2158 549 -2183
559 -39 16 129 -20 1031 -225z m-1259 185 c-3 -3 -12 -4 -19 -1 -8 3 -5 6 6 6
11 1 17 -2 13 -5z m1243 -318 l1215 -313 24 -42 c13 -23 21 -45 17 -48 -5 -5
-2474 704 -2485 713 -2 2 0 4 5 4 5 0 556 -141 1224 -314z m-453 -1155 l2272
-1165 17 -93 c9 -52 15 -95 13 -97 -4 -2 -5109 2782 -5139 2803 -25 18 462
-231 2837 -1448z m396 1028 c744 -215 1357 -396 1363 -402 13 -14 46 -97 39
-97 -6 0 -2635 842 -2715 870 -30 10 -51 19 -47 19 4 1 616 -175 1360 -390z
m-552 -758 c1300 -624 2366 -1135 2368 -1137 4 -3 41 -178 38 -180 -2 -1
-4277 2190 -4637 2377 -85 44 -150 79 -144 77 6 -2 1075 -513 2375 -1137z
m-2081 1109 c8 -5 11 -10 5 -10 -5 0 -17 5 -25 10 -8 5 -10 10 -5 10 6 0 17
-5 25 -10z m2565 -478 l1520 -487 19 -53 c10 -29 17 -54 15 -57 -4 -4 -3018
1053 -3064 1074 -11 5 -18 10 -15 10 3 0 689 -219 1525 -487z m-2255 448 c8
-5 11 -10 5 -10 -5 0 -17 5 -25 10 -8 5 -10 10 -5 10 6 0 17 -5 25 -10z m2200
-583 l1655 -582 23 -64 c20 -58 21 -63 5 -59 -31 9 -3368 1290 -3373 1295 -8
8 -61 27 1690 -590z m-277 -387 l2157 -965 18 -80 c10 -44 18 -81 17 -82 -2
-4 -4358 2086 -4365 2094 -9 10 -47 27 2173 -967z m100 130 l1985 -825 21 -74
c11 -41 19 -76 18 -77 -2 -2 -3960 1769 -4002 1791 -16 8 -25 14 -19 13 7 -2
905 -374 1997 -828z m73 136 c995 -382 1816 -697 1824 -700 14 -6 58 -132 49
-140 -3 -2 -3605 1492 -3684 1528 -78 36 283 -102 1811 -688z m1891 577 c-3
-10 -5 -4 -5 12 0 17 2 24 5 18 2 -7 2 -21 0 -30z m660 -3120 c-3 -10 -5 -4
-5 12 0 17 2 24 5 18 2 -7 2 -21 0 -30z m30 -465 c-3 -7 -5 -2 -5 12 0 14 2
19 5 13 2 -7 2 -19 0 -25z m-10 -50 c-3 -8 -6 -5 -6 6 -1 11 2 17 5 13 3 -3 4
-12 1 -19z m10 -490 c-3 -7 -5 -2 -5 12 0 14 2 19 5 13 2 -7 2 -19 0 -25z
m-10 -40 c-3 -8 -6 -5 -6 6 -1 11 2 17 5 13 3 -3 4 -12 1 -19z m-266 -2265
c-12 -20 -14 -14 -5 12 4 9 9 14 11 11 3 -2 0 -13 -6 -23z m-95 -500 c-14 -26
-25 -45 -26 -41 -1 14 41 101 46 95 3 -3 -6 -27 -20 -54z m-86 -450 c-2 -16
-69 -137 -70 -124 0 20 51 131 61 131 5 0 9 -3 9 -7z m-138 -523 c-6 -27 -77
-140 -81 -129 -5 17 61 150 74 145 5 -2 9 -9 7 -16z m-1148 -2549 c-9 -29 -18
-50 -21 -47 -3 2 3 28 12 56 22 67 29 60 9 -9z m-304 -527 c-55 -150 -51 -141
-57 -126 -5 13 87 246 94 239 2 -2 -15 -53 -37 -113z m-249 -321 c-12 -20 -14
-14 -5 12 4 9 9 14 11 11 3 -2 0 -13 -6 -23z m-97 -234 c-79 -191 -88 -209
-96 -187 -5 12 162 382 169 375 2 -2 -31 -87 -73 -188z m-262 -296 c-5 -10
-62 -133 -128 -275 -108 -232 -134 -278 -134 -231 0 16 258 523 266 523 3 0 1
-8 -4 -17z m-549 -837 c-92 -179 -172 -324 -178 -322 -5 1 -11 10 -13 19 -3
15 349 639 356 632 2 -2 -72 -150 -165 -329z"/>
    </g>
</svg>